<?xml version="1.0" standalone="no"?>
<!DOCTYPE svg PUBLIC "-//W3C//DTD SVG 20010904//EN"
 "http://www.w3.org/TR/2001/REC-SVG-20010904/DTD/svg10.dtd">
<svg version="1.0" xmlns="http://www.w3.org/2000/svg"
 width="100.000000pt" height="100.000000pt" viewBox="0 0 100.000000 100.000000"
 preserveAspectRatio="xMidYMid meet">
<metadata>
Created by potrace 1.14, written by Peter Selinger 2001-2017
</metadata>
<g transform="translate(0.000000,100.000000) scale(0.100000,-0.100000)"
fill="#000000" stroke="none">
<path d="M286 990 c4 -8 14 -23 22 -32 16 -19 9 -38 -15 -38 -38 0 -156 -43
-202 -74 -42 -29 -52 -32 -62 -20 -6 8 -16 14 -22 14 -7 0 -7 -4 1 -12 7 -7
12 -20 12 -30 0 -10 4 -18 9 -18 5 0 7 -9 4 -21 -4 -14 0 -22 14 -25 10 -3 25
-14 31 -25 12 -19 12 -19 -27 1 -46 23 -51 24 -51 10 0 -5 24 -22 53 -36 62
-31 53 -23 61 -59 l8 -30 -23 29 c-18 23 -73 56 -93 56 -2 0 -4 -29 -4 -65 0
-53 4 -67 19 -75 12 -7 20 -7 24 1 5 6 11 4 19 -7 10 -13 22 -16 54 -10 40 6
42 5 72 -38 38 -56 127 -102 231 -120 41 -7 68 -16 61 -20 -17 -10 -15 -80 5
-143 13 -43 21 -53 39 -53 25 0 40 -28 24 -44 -17 -17 -11 -28 10 -21 22 7 26
-5 9 -22 -7 -7 -9 -23 -5 -37 l6 -26 145 0 c80 0 145 3 145 7 0 3 -7 15 -16
25 -10 10 -19 39 -21 65 -11 113 -63 167 -110 113 l-22 -25 9 34 c5 18 10 53
11 78 4 64 48 84 89 41 18 -19 22 -21 31 -8 23 37 23 100 -1 85 -6 -3 -13 1
-16 9 -3 9 -16 16 -28 17 -19 1 -19 2 3 8 35 10 39 31 5 31 -26 0 -26 1 -10
19 10 11 24 17 31 15 33 -13 185 98 185 134 0 11 -10 6 -32 -17 -17 -17 -45
-41 -62 -52 -29 -19 -29 -19 4 10 19 17 30 31 25 31 -6 0 -2 5 8 11 33 19 17
28 -25 13 -22 -8 -43 -12 -45 -10 -2 2 25 14 61 27 36 13 66 29 66 36 0 15 3
15 -40 3 -43 -12 -51 -2 -38 53 5 23 5 44 0 49 -5 5 -7 51 -4 103 2 52 0 95
-4 95 -5 0 -9 -31 -9 -69 0 -38 -3 -73 -7 -77 -4 -4 -40 9 -80 29 -40 20 -107
43 -148 52 -82 16 -219 19 -290 5 -33 -6 -47 -5 -52 4 -12 20 -50 62 -42 46z
m276 -215 c88 -8 202 -40 255 -71 l42 -24 -14 -41 c-33 -93 -133 -195 -225
-230 -70 -27 -187 -26 -237 1 -21 11 -43 20 -49 20 -6 0 -18 7 -25 17 -13 15
-12 15 6 6 41 -22 179 -44 230 -38 93 13 186 72 172 109 -8 20 -48 20 -134 0
-51 -12 -95 -15 -175 -10 -98 5 -108 4 -117 -13 -6 -10 -9 -20 -8 -22 1 -2 -8
6 -21 18 -14 13 -25 36 -27 58 -3 32 -2 35 17 29 13 -4 18 -2 14 4 -3 6 14 4
40 -4 42 -13 50 -12 90 5 l43 20 21 -35 c24 -37 45 -46 35 -14 -5 15 -2 20 12
20 11 0 24 -5 31 -12 9 -9 12 -8 12 5 0 9 -11 19 -25 23 -13 3 -24 9 -23 13 4
30 -4 43 -22 38 -11 -3 -18 -1 -14 4 3 5 -4 9 -16 9 -12 0 -41 12 -65 26 -40
23 -43 28 -34 50 5 14 7 30 4 34 -10 16 78 18 207 5z m-307 -25 c-3 -5 9 -19
27 -30 32 -19 32 -20 8 -20 -14 0 -36 -7 -48 -16 -21 -14 -23 -14 -32 11 -12
32 -9 48 10 57 23 10 42 9 35 -2z m-126 -201 c-29 -18 -41 -10 -22 15 15 20
19 22 27 9 5 -10 4 -18 -5 -24z m736 1 c-3 -5 -16 -10 -28 -9 -20 1 -20 2 3 9
14 4 26 8 28 9 2 1 0 -3 -3 -9z m-165 -30 c2 -3 -2 -15 -11 -27 -24 -35 -94
-57 -183 -58 -77 0 -80 1 -87 25 -7 24 -7 24 -8 3 -1 -26 -8 -28 -48 -11 -15
6 -31 12 -35 12 -4 1 -13 7 -19 14 -22 21 2 31 56 22 77 -13 144 -10 215 9 62
18 109 22 120 11z m-14 -217 c-3 -16 -8 -45 -10 -67 -3 -24 -13 -44 -25 -53
-12 -8 -21 -24 -22 -36 0 -12 -3 -16 -6 -10 -8 21 -46 -5 -38 -25 5 -13 3 -14
-5 -6 -20 19 -24 88 -7 102 13 11 14 8 7 -21 -6 -31 -5 -34 11 -30 20 6 24 17
34 95 6 49 26 75 46 62 8 -4 9 -3 5 4 -4 7 -2 12 4 12 7 0 9 -10 6 -27z"/>
<path d="M570 717 c-14 -7 -26 -20 -28 -30 -4 -17 19 -47 36 -47 5 0 7 -11 5
-24 -7 -33 27 -50 84 -42 112 15 161 89 77 116 -28 10 -33 14 -23 26 17 21 -4
18 -52 -6 l-40 -21 -17 20 c-15 18 -20 19 -42 8z"/>
<path d="M14 951 c17 -18 17 -19 -1 -24 -14 -3 -12 -6 10 -12 39 -10 45 0 17
30 -27 29 -52 35 -26 6z"/>
<path d="M831 462 c-15 -27 -14 -29 9 -35 11 -3 20 -12 20 -21 0 -13 6 -15 28
-10 15 4 33 14 40 22 16 21 -10 49 -55 58 -25 5 -33 2 -42 -14z"/>
<path d="M961 404 c-18 -29 -19 -39 -9 -51 10 -12 9 -18 -5 -28 -15 -11 -15
-14 -3 -24 11 -9 19 -9 35 1 17 11 21 23 21 70 0 31 -4 59 -9 62 -5 3 -19 -10
-30 -30z"/>
<path d="M855 341 c-8 -17 -12 -32 -7 -34 10 -6 48 9 56 22 4 6 13 8 21 4 9
-3 15 1 15 10 0 13 -28 27 -57 27 -7 0 -19 -13 -28 -29z"/>
<path d="M797 303 c-10 -10 -8 -85 2 -79 5 3 14 -1 21 -9 7 -8 17 -15 23 -15
7 0 7 4 -1 12 -9 9 -9 15 0 25 6 8 7 13 2 12 -36 -6 -46 2 -40 31 6 31 4 35
-7 23z"/>
<path d="M831 284 c0 -11 3 -14 6 -6 3 7 2 16 -1 19 -3 4 -6 -2 -5 -13z"/>
<path d="M887 266 c-3 -8 10 -22 34 -35 21 -12 39 -26 39 -32 0 -5 9 -9 20 -9
17 0 20 7 20 47 0 37 -3 44 -12 35 -15 -15 -54 -16 -63 -2 -9 14 -32 12 -38
-4z"/>
<path d="M871 176 c-26 -42 -26 -42 5 -115 l27 -61 48 0 49 0 0 50 c0 40 -3
48 -15 44 -11 -4 -13 -2 -10 9 4 8 -1 17 -9 20 -9 4 -16 17 -16 31 0 65 -45
78 -79 22z"/>
<path d="M960 161 c0 -10 28 -41 36 -41 2 0 4 11 4 25 0 18 -5 25 -20 25 -11
0 -20 -4 -20 -9z"/>
</g>
</svg>
